<?xml version="1.0" encoding="UTF-8"?>
<svg width="392px" height="120px" viewBox="0 0 392 120" version="1.1" xmlns="http://www.w3.org/2000/svg" xmlns:xlink="http://www.w3.org/1999/xlink">
    <title>consider-it-with-mission-orange</title>
    <g id="Page-1" stroke="none" stroke-width="1" fill="none" fill-rule="evenodd">
        <g id="Schriftzug" transform="translate(-106.000000, -132.000000)" fill="#F07E2D" fill-rule="nonzero">
            <g id="consider-it-schriftzug-mission" transform="translate(106.000000, 132.000000)">
                <path d="M36.72,91.44 C34.2,92.52 29.76,93.96 24.72,93.96 C7.32,93.96 0,83.52 0,60.12 C0,39.36 8.4,25.92 22.8,25.92 C29.4,25.92 33.72,27.84 36.96,30.12 L34.56,38.04 C30.96,36 27.6,34.32 22.68,34.32 C14.76,34.32 9.12,43.8 9.12,59.76 C9.12,76.8 13.08,85.32 25.44,85.32 C29.04,85.32 32.52,84.24 35.76,83.52 L36.72,91.44 Z M84.36,60.12 C84.36,82.56 75.12,93.96 61.92,93.96 C47.88,93.96 40.08,81.72 40.08,60.84 C40.08,38.76 48.96,25.92 62.52,25.92 C77.52,25.92 84.36,38.88 84.36,60.12 Z M75.24,60.12 C75.24,48.12 72.48,34.08 62.16,34.08 C52.44,34.08 49.2,48 49.2,60.24 C49.2,73.56 52.68,85.68 62.4,85.68 C72.36,85.68 75.24,72.96 75.24,60.12 Z M132.12,92.88 L123,92.88 L123,51.48 C123,40.8 122.16,34.92 114.6,34.92 C109.92,34.92 103.8,40.2 101.52,42.12 L101.52,92.88 L92.4,92.88 L92.4,27.36 L101.52,27.36 L101.52,34.56 C102,33.72 108.84,25.92 116.76,25.92 C131.52,25.92 132.12,40.32 132.12,50.64 L132.12,92.88 Z M173.28,74.76 C173.28,88.08 163.08,93.84 154.08,93.84 C147.72,93.84 142.92,92.52 139.32,90.96 L140.64,82.8 C144.36,84.12 148.92,85.56 153.48,85.56 C159.48,85.56 164.28,81.6 164.28,75.84 C164.28,62.76 140.64,62.4 140.64,43.44 C140.64,31.8 148.08,26.16 158.28,26.16 C163.68,26.16 168,27.84 170.52,28.92 L169.08,36.72 C166.2,35.52 162.48,34.2 157.44,34.2 C152.4,34.2 149.52,37.68 149.52,42.48 C149.52,55.44 173.28,56.4 173.28,74.76 Z M189.6,92.88 L180.48,92.88 L180.48,27.36 L189.6,27.36 L189.6,92.88 Z M192.24,7.08 L185.04,14.28 L178.08,7.08 L185.04,0 L192.24,7.08 Z M238.08,92.88 L228.96,92.88 L228.96,86.64 C227.16,89.52 222,93.84 216.72,93.84 C208.08,93.84 197.76,87.12 197.76,60.36 C197.76,37.68 207.6,25.92 219.84,25.92 C225.96,25.92 228.6,27.48 228.96,27.48 L228.96,2.4 L238.08,2.4 L238.08,92.88 Z M228.96,78.96 L228.96,35.88 C228.72,35.76 225.12,34.2 221.04,34.2 C210.96,34.2 206.76,45.84 206.76,60.48 C206.76,77.64 212.04,85.2 218.76,85.2 C222.72,85.2 226.92,81.12 228.96,78.96 Z M286.08,62.16 L255.24,62.16 C255.24,80.64 261.6,85.2 271.44,85.2 C274.68,85.2 280.32,83.88 283.68,82.68 L285.36,90.72 C282.84,92.16 276.96,93.96 269.4,93.96 C255,93.96 246.24,85.92 246.24,61.32 C246.24,35.52 255.84,25.8 268.08,25.8 C280.8,25.8 286.08,37.56 286.08,58.44 L286.08,62.16 Z M276.6,54.48 C276.6,42.24 273.6,33.6 267,33.6 C260.28,33.6 256.32,41.4 255.36,54.48 L276.6,54.48 Z M321.24,27.36 L320.04,36 C318.36,35.28 316.44,34.92 313.56,34.92 C308.76,34.92 304.68,39.72 302.64,44.28 L302.64,92.88 L293.52,92.88 L293.52,27.36 L302.64,27.36 L302.64,35.04 L303,35.04 C304.92,31.32 308.52,26.16 314.52,26.16 C318.12,26.16 320.16,26.88 321.24,27.36 Z M352.2,92.88 L343.08,92.88 L343.08,27.36 L352.2,27.36 L352.2,92.88 Z M354.84,7.08 L347.64,14.28 L340.68,7.08 L347.64,0 L354.84,7.08 Z M391.8,91.32 C389.16,92.52 385.32,93.6 382.08,93.6 C371.28,93.6 365.28,91.68 365.28,74.16 L365.28,35.4 L358.32,35.4 L358.32,27.36 L365.28,27.36 L365.28,13.92 L374.16,13.92 L374.16,27.36 L388.68,27.36 L388.68,35.4 L374.16,35.4 L374.16,74.64 C374.16,82.92 376.2,85.32 382.08,85.32 C384.84,85.32 388.56,84.48 390.48,83.52 L391.8,91.32 Z" id="considerit"></path>
                <path d="M9.04930493,119.23 C10.0459716,119.23 10.9583049,119.069 11.7863049,118.747 C12.6143049,118.425 13.3349716,117.945833 13.9483049,117.3095 C14.5616383,116.673167 15.0216383,115.895 15.3283049,114.975 L15.3283049,114.975 L12.9823049,114.193 C12.6909716,115.159 12.2041383,115.8835 11.5218049,116.3665 C10.8394716,116.8495 10.0306383,117.091 9.09530493,117.091 C8.12930493,117.091 7.30130493,116.868667 6.61130493,116.424 C5.92130493,115.979333 5.39230493,115.3315 5.02430493,114.4805 C4.65630493,113.6295 4.47230493,112.606 4.47230493,111.41 C4.47230493,110.198667 4.66780493,109.171333 5.05880493,108.328 C5.44980493,107.484667 5.9979716,106.840667 6.70330493,106.396 C7.40863826,105.951333 8.2289716,105.729 9.16430493,105.729 C10.0996383,105.729 10.8586383,105.939833 11.4413049,106.3615 C12.0239716,106.783167 12.4686383,107.446333 12.7753049,108.351 L12.7753049,108.351 L15.0983049,107.316 C14.7916383,106.488 14.3546383,105.798 13.7873049,105.246 C13.2199716,104.694 12.5338049,104.28 11.7288049,104.004 C10.9238049,103.728 10.0229716,103.59 9.02630493,103.59 C7.5849716,103.59 6.32763826,103.904333 5.25430493,104.533 C4.1809716,105.161667 3.3529716,106.058667 2.77030493,107.224 C2.18763826,108.389333 1.89630493,109.784667 1.89630493,111.41 C1.89630493,113.035333 2.18763826,114.430667 2.77030493,115.596 C3.3529716,116.761333 4.1809716,117.658333 5.25430493,118.287 C6.32763826,118.915667 7.59263826,119.23 9.04930493,119.23 Z M24.2900464,119.23 C25.7620464,119.23 27.0347131,118.915667 28.1080464,118.287 C29.1813798,117.658333 30.0093798,116.761333 30.5920464,115.596 C31.1747131,114.430667 31.4660464,113.035333 31.4660464,111.41 C31.4660464,109.784667 31.1747131,108.389333 30.5920464,107.224 C30.0093798,106.058667 29.1813798,105.161667 28.1080464,104.533 C27.0347131,103.904333 25.7620464,103.59 24.2900464,103.59 C22.8333798,103.59 21.5683798,103.904333 20.4950464,104.533 C19.4217131,105.161667 18.5937131,106.058667 18.0110464,107.224 C17.4283798,108.389333 17.1370464,109.784667 17.1370464,111.41 C17.1370464,113.035333 17.4283798,114.430667 18.0110464,115.596 C18.5937131,116.761333 19.4217131,117.658333 20.4950464,118.287 C21.5683798,118.915667 22.8333798,119.23 24.2900464,119.23 Z M24.2900464,117.091 C23.3393798,117.091 22.5228798,116.868667 21.8405464,116.424 C21.1582131,115.979333 20.6330464,115.3315 20.2650464,114.4805 C19.8970464,113.6295 19.7130464,112.606 19.7130464,111.41 C19.7130464,110.198667 19.8970464,109.171333 20.2650464,108.328 C20.6330464,107.484667 21.1582131,106.840667 21.8405464,106.396 C22.5228798,105.951333 23.3393798,105.729 24.2900464,105.729 C25.2560464,105.729 26.0802131,105.951333 26.7625464,106.396 C27.4448798,106.840667 27.9700464,107.484667 28.3380464,108.328 C28.7060464,109.171333 28.8900464,110.198667 28.8900464,111.41 C28.8900464,112.606 28.7060464,113.6295 28.3380464,114.4805 C27.9700464,115.3315 27.4448798,115.979333 26.7625464,116.424 C26.0802131,116.868667 25.2560464,117.091 24.2900464,117.091 Z M42.2033896,114.078 L42.2033896,111.801 L34.3603896,111.801 L34.3603896,114.078 L42.2033896,114.078 Z M52.2695846,119.23 C53.2662513,119.23 54.1785846,119.069 55.0065846,118.747 C55.8345846,118.425 56.5552513,117.945833 57.1685846,117.3095 C57.7819179,116.673167 58.2419179,115.895 58.5485846,114.975 L58.5485846,114.975 L56.2025846,114.193 C55.9112513,115.159 55.4244179,115.8835 54.7420846,116.3665 C54.0597513,116.8495 53.2509179,117.091 52.3155846,117.091 C51.3495846,117.091 50.5215846,116.868667 49.8315846,116.424 C49.1415846,115.979333 48.6125846,115.3315 48.2445846,114.4805 C47.8765846,113.6295 47.6925846,112.606 47.6925846,111.41 C47.6925846,110.198667 47.8880846,109.171333 48.2790846,108.328 C48.6700846,107.484667 49.2182513,106.840667 49.9235846,106.396 C50.6289179,105.951333 51.4492513,105.729 52.3845846,105.729 C53.3199179,105.729 54.0789179,105.939833 54.6615846,106.3615 C55.2442513,106.783167 55.6889179,107.446333 55.9955846,108.351 L55.9955846,108.351 L58.3185846,107.316 C58.0119179,106.488 57.5749179,105.798 57.0075846,105.246 C56.4402513,104.694 55.7540846,104.28 54.9490846,104.004 C54.1440846,103.728 53.2432513,103.59 52.2465846,103.59 C50.8052513,103.59 49.5479179,103.904333 48.4745846,104.533 C47.4012513,105.161667 46.5732513,106.058667 45.9905846,107.224 C45.4079179,108.389333 45.1165846,109.784667 45.1165846,111.41 C45.1165846,113.035333 45.4079179,114.430667 45.9905846,115.596 C46.5732513,116.761333 47.4012513,117.658333 48.4745846,118.287 C49.5479179,118.915667 50.8129179,119.23 52.2695846,119.23 Z M63.6463261,119 L63.6463261,112.928 L66.91,112.928 L70.7763261,119 L73.6053261,119 L69.414,112.548 L69.4529061,112.537051 C70.0661372,112.368419 70.6067394,112.11547 71.0747128,111.778204 L71.2708261,111.6285 C72.2291594,110.854167 72.7083261,109.754 72.7083261,108.328 C72.7083261,106.948 72.2291594,105.851667 71.2708261,105.039 C70.3124928,104.226333 69.0206594,103.82 67.3953261,103.82 L67.3953261,103.82 L61.2083261,103.82 L61.2083261,119 L63.6463261,119 Z M67.2113261,110.881 L63.6463261,110.881 L63.6463261,105.913 L67.2113261,105.913 C68.2079928,105.913 68.9478261,106.12 69.4308261,106.534 C69.9138261,106.948 70.1553261,107.569 70.1553261,108.397 C70.1553261,109.240333 69.9138261,109.865167 69.4308261,110.2715 C68.9478261,110.677833 68.2079928,110.881 67.2113261,110.881 L67.2113261,110.881 Z M87.4849194,119 L87.4849194,116.884 L78.6299194,116.884 L78.6299194,112.376 L85.2999194,112.376 L85.2999194,110.306 L78.6299194,110.306 L78.6299194,105.936 L87.1629194,105.936 L87.1629194,103.82 L76.1689194,103.82 L76.1689194,119 L87.4849194,119 Z M91.0292414,119 L92.473,115.021 L98.865,115.021 L100.298241,119 L102.897241,119 L97.1702414,103.82 L94.2262414,103.82 L88.4992414,119 L91.0292414,119 Z M98.144,113.02 L93.199,113.02 L94.9852414,108.098 L95.6292414,105.959 L95.6982414,105.959 L96.3882414,108.144 L98.144,113.02 Z M109.164297,119 L109.164297,105.936 L114.362297,105.936 L114.362297,103.82 L101.505297,103.82 L101.505297,105.936 L106.703297,105.936 L106.703297,119 L109.164297,119 Z M119.261763,119 L119.261763,103.82 L116.800763,103.82 L116.800763,119 L119.261763,119 Z M125.515936,119 L125.515936,109.202 L125.423936,106.741 L125.446936,106.741 L126.918936,109.432 L132.783936,119 L135.704936,119 L135.704936,103.82 L133.427936,103.82 L133.427936,113.618 L133.519936,116.102 L133.496936,116.102 L132.001936,113.365 L126.159936,103.82 L123.261936,103.82 L123.261936,119 L125.515936,119 Z M145.857614,119.23 C147.145614,119.23 148.215114,118.961667 149.066114,118.425 C149.60766,118.083485 150.051408,117.655039 150.397358,117.139661 L150.482,117.005 L150.572614,119 L152.412614,119 L152.412614,111.18 L145.811614,111.18 L145.811614,113.181 L150.227614,113.181 L150.227614,113.618 C150.227614,114.216 150.124114,114.7335 149.917114,115.1705 C149.710114,115.6075 149.422614,115.967833 149.054614,116.2515 C148.686614,116.535167 148.257281,116.749833 147.766614,116.8955 C147.275948,117.041167 146.746948,117.114 146.179614,117.114 C145.136948,117.114 144.259114,116.891667 143.546114,116.447 C142.833114,116.002333 142.300281,115.3545 141.947614,114.5035 C141.594948,113.6525 141.418614,112.621333 141.418614,111.41 C141.418614,110.214 141.617948,109.1905 142.016614,108.3395 C142.415281,107.4885 142.971114,106.840667 143.684114,106.396 C144.397114,105.951333 145.228948,105.729 146.179614,105.729 C147.130281,105.729 147.939114,105.939833 148.606114,106.3615 C149.273114,106.783167 149.752281,107.415667 150.043614,108.259 L150.043614,108.259 L152.320614,107.178 C151.737948,105.951333 150.959781,105.046667 149.986114,104.464 C149.012448,103.881333 147.735948,103.59 146.156614,103.59 C144.715281,103.59 143.438781,103.908167 142.327114,104.5445 C141.215448,105.180833 140.356781,106.081667 139.751114,107.247 C139.145448,108.412333 138.842614,109.8 138.842614,111.41 C138.842614,113.050667 139.133948,114.449833 139.716614,115.6075 C140.299281,116.765167 141.111948,117.658333 142.154614,118.287 C143.197281,118.915667 144.431614,119.23 145.857614,119.23 Z M168.34661,119 L168.34661,105.936 L173.54461,105.936 L173.54461,103.82 L160.68761,103.82 L160.68761,105.936 L165.88561,105.936 L165.88561,119 L168.34661,119 Z M178.444076,119 L178.444,112.377 L185.942,112.377 L185.942076,119 L188.426076,119 L188.426076,103.82 L185.942076,103.82 L185.942,110.26 L178.444,110.26 L178.444076,103.82 L175.983076,103.82 L175.983076,119 L178.444076,119 Z M203.734894,119 L203.734894,116.884 L194.879894,116.884 L194.879894,112.376 L201.549894,112.376 L201.549894,110.306 L194.879894,110.306 L194.879894,105.936 L203.412894,105.936 L203.412894,103.82 L192.418894,103.82 L192.418894,119 L203.734894,119 Z M218.868491,119 C221.245158,119 223.096658,118.3445 224.422991,117.0335 C225.749325,115.7225 226.412491,113.848 226.412491,111.41 C226.412491,108.972 225.749325,107.0975 224.422991,105.7865 C223.096658,104.4755 221.245158,103.82 218.868491,103.82 L218.868491,103.82 L213.509491,103.82 L213.509491,119 L218.868491,119 Z M218.868491,116.907 L215.970491,116.907 L215.970491,105.913 L218.868491,105.913 C220.478491,105.913 221.708991,106.392167 222.559991,107.3505 C223.410991,108.308833 223.836491,109.662 223.836491,111.41 C223.836491,113.158 223.410991,114.511167 222.559991,115.4695 C221.708991,116.427833 220.478491,116.907 218.868491,116.907 L218.868491,116.907 Z M232.032792,119 L232.032792,103.82 L229.571792,103.82 L229.571792,119 L232.032792,119 Z M242.196966,119.23 C243.484966,119.23 244.554466,118.961667 245.405466,118.425 C245.947012,118.083485 246.390759,117.655039 246.73671,117.139661 L246.821,117.005 L246.911966,119 L248.751966,119 L248.751966,111.18 L242.150966,111.18 L242.150966,113.181 L246.566966,113.181 L246.566966,113.618 C246.566966,114.216 246.463466,114.7335 246.256466,115.1705 C246.049466,115.6075 245.761966,115.967833 245.393966,116.2515 C245.025966,116.535167 244.596633,116.749833 244.105966,116.8955 C243.615299,117.041167 243.086299,117.114 242.518966,117.114 C241.476299,117.114 240.598466,116.891667 239.885466,116.447 C239.172466,116.002333 238.639633,115.3545 238.286966,114.5035 C237.934299,113.6525 237.757966,112.621333 237.757966,111.41 C237.757966,110.214 237.957299,109.1905 238.355966,108.3395 C238.754633,107.4885 239.310466,106.840667 240.023466,106.396 C240.736466,105.951333 241.568299,105.729 242.518966,105.729 C243.469633,105.729 244.278466,105.939833 244.945466,106.3615 C245.612466,106.783167 246.091633,107.415667 246.382966,108.259 L246.382966,108.259 L248.659966,107.178 C248.077299,105.951333 247.299133,105.046667 246.325466,104.464 C245.351799,103.881333 244.075299,103.59 242.495966,103.59 C241.054633,103.59 239.778133,103.908167 238.666466,104.5445 C237.554799,105.180833 236.696133,106.081667 236.090466,107.247 C235.484799,108.412333 235.181966,109.8 235.181966,111.41 C235.181966,113.050667 235.473299,114.449833 236.055966,115.6075 C236.638633,116.765167 237.451299,117.658333 238.493966,118.287 C239.536633,118.915667 240.770966,119.23 242.196966,119.23 Z M254.637686,119 L254.637686,103.82 L252.176686,103.82 L252.176686,119 L254.637686,119 Z M264.73286,119 L264.73286,105.936 L269.93086,105.936 L269.93086,103.82 L257.07386,103.82 L257.07386,105.936 L262.27186,105.936 L262.27186,119 L264.73286,119 Z M271.081326,119 L272.525,115.021 L278.917,115.021 L280.350326,119 L282.949326,119 L277.222326,103.82 L274.278326,103.82 L268.551326,119 L271.081326,119 Z M278.196,113.02 L273.251,113.02 L275.037326,108.098 L275.681326,105.959 L275.750326,105.959 L276.440326,108.144 L278.196,113.02 Z M295.978381,119 L295.978381,116.884 L287.606381,116.884 L287.606381,103.82 L285.145381,103.82 L285.145381,119 L295.978381,119 Z M307.257636,119 L307.257636,112.468 L313.927636,112.468 L313.927636,110.352 L307.257636,110.352 L307.257636,105.936 L315.767636,105.936 L315.767636,103.82 L304.796636,103.82 L304.796636,119 L307.257636,119 Z M324.231195,119.23 C326.255195,119.23 327.796195,118.724 328.854195,117.712 C329.912195,116.7 330.441195,115.189667 330.441195,113.181 L330.441195,113.181 L330.441195,103.82 L327.980195,103.82 L327.980195,112.882 C327.980195,114.308 327.673528,115.366 327.060195,116.056 C326.446862,116.746 325.503862,117.091 324.231195,117.091 C322.973862,117.091 322.038528,116.746 321.425195,116.056 C320.811862,115.366 320.505195,114.308 320.505195,112.882 L320.505195,112.882 L320.505195,103.82 L318.044195,103.82 L318.044195,113.181 C318.044195,115.189667 318.577028,116.7 319.642695,117.712 C320.708362,118.724 322.237862,119.23 324.231195,119.23 Z M340.238754,119 L340.238754,105.936 L345.436754,105.936 L345.436754,103.82 L332.579754,103.82 L332.579754,105.936 L337.777754,105.936 L337.777754,119 L340.238754,119 Z M353.76322,119.23 C355.78722,119.23 357.32822,118.724 358.38622,117.712 C359.44422,116.7 359.97322,115.189667 359.97322,113.181 L359.97322,113.181 L359.97322,103.82 L357.51222,103.82 L357.51222,112.882 C357.51222,114.308 357.205554,115.366 356.59222,116.056 C355.978887,116.746 355.035887,117.091 353.76322,117.091 C352.505887,117.091 351.570554,116.746 350.95722,116.056 C350.343887,115.366 350.03722,114.308 350.03722,112.882 L350.03722,112.882 L350.03722,103.82 L347.57622,103.82 L347.57622,113.181 C347.57622,115.189667 348.109054,116.7 349.17472,117.712 C350.240387,118.724 351.769887,119.23 353.76322,119.23 Z M366.11378,119 L366.11378,112.928 L369.377,112.928 L373.24378,119 L376.07278,119 L371.881,112.548 L371.92036,112.537051 C372.533591,112.368419 373.074193,112.11547 373.542166,111.778204 L373.73828,111.6285 C374.696613,110.854167 375.17578,109.754 375.17578,108.328 C375.17578,106.948 374.696613,105.851667 373.73828,105.039 C372.779946,104.226333 371.488113,103.82 369.86278,103.82 L369.86278,103.82 L363.67578,103.82 L363.67578,119 L366.11378,119 Z M369.67878,110.881 L366.11378,110.881 L366.11378,105.913 L369.67878,105.913 C370.675446,105.913 371.41528,106.12 371.89828,106.534 C372.38128,106.948 372.62278,107.569 372.62278,108.397 C372.62278,109.240333 372.38128,109.865167 371.89828,110.2715 C371.41528,110.677833 370.675446,110.881 369.67878,110.881 L369.67878,110.881 Z M389.952373,119 L389.952373,116.884 L381.097373,116.884 L381.097373,112.376 L387.767373,112.376 L387.767373,110.306 L381.097373,110.306 L381.097373,105.936 L389.630373,105.936 L389.630373,103.82 L378.636373,103.82 L378.636373,119 L389.952373,119 Z" id="CO-CREATINGTHEDIGITALFUTURE"></path>
            </g>
        </g>
    </g>
</svg>